<?xml version="1.0" encoding="UTF-8" standalone="no"?>
<!DOCTYPE svg PUBLIC "-//W3C//DTD SVG 1.1//EN" "http://www.w3.org/Graphics/SVG/1.1/DTD/svg11.dtd">
<svg width="100%" height="100%" viewBox="0 0 330 330" version="1.1" xmlns="http://www.w3.org/2000/svg" xmlns:xlink="http://www.w3.org/1999/xlink" xml:space="preserve" xmlns:serif="http://www.serif.com/" style="fill-rule:evenodd;clip-rule:evenodd;stroke-linecap:round;stroke-linejoin:round;stroke-miterlimit:1.5;">
    <g transform="matrix(1,0,0,1,-469.026,-1.73682)">
        <g id="Name-Logo--On-" serif:id="Name Logo (On)" transform="matrix(1,0,0,1,284.026,-183.263)">
            <g transform="matrix(0.936892,0,0,0.936892,-12.9543,64.4271)">
                <path d="M387.355,304.815L547.506,304.809C547.506,393.172 475.766,464.912 387.402,464.912C299.039,464.912 227.299,393.172 227.299,304.809C227.299,216.445 299.039,144.705 387.402,144.705C452.995,144.705 509.427,184.234 534.157,240.75" style="fill:none;stroke:rgb(0,0,0);stroke-width:32.02px;"/>
            </g>
            <g transform="matrix(0.468446,0,0,0.468446,168.555,207.214)">
                <path d="M483.412,432.906C456.655,453.001 423.409,464.912 387.402,464.912C299.039,464.912 227.299,393.172 227.299,304.809C227.299,216.445 299.039,144.705 387.402,144.705C423.366,144.705 456.576,156.588 483.317,176.639" style="fill:none;stroke:rgb(0,0,0);stroke-width:64.04px;"/>
            </g>
        </g>
    </g>
</svg>
