<?xml version="1.0" encoding="UTF-8" standalone="no"?>
<!DOCTYPE svg PUBLIC "-//W3C//DTD SVG 1.1//EN" "http://www.w3.org/Graphics/SVG/1.1/DTD/svg11.dtd">
<svg width="100%" height="100%" viewBox="0 0 330 330" version="1.1" xmlns="http://www.w3.org/2000/svg" xmlns:xlink="http://www.w3.org/1999/xlink" xml:space="preserve" xmlns:serif="http://www.serif.com/" style="fill-rule:evenodd;clip-rule:evenodd;stroke-linejoin:round;stroke-miterlimit:2;">
    <g transform="matrix(1,0,0,1,-235.382,-268.13)">
        <g id="Power-Logo--Off-" serif:id="Power Logo (Off)" transform="matrix(0,-1,1,0,50.3816,783.13)">
            <g transform="matrix(0.936892,0,0,0.936892,-12.9543,64.4271)">
                <path d="M530.604,320.82L387.356,320.826C378.52,320.826 371.345,313.653 371.345,304.816C371.345,295.98 378.518,288.805 387.355,288.805L547.505,288.798C551.752,288.798 555.824,290.485 558.827,293.487C561.83,296.49 563.517,300.562 563.517,304.809C563.517,402.009 484.602,480.923 387.402,480.923C290.202,480.923 211.288,402.009 211.288,304.809C211.288,207.609 290.202,128.694 387.402,128.694C459.549,128.694 521.624,172.169 548.824,234.331C552.367,242.427 548.67,251.875 540.575,255.417C532.479,258.96 523.031,255.263 519.489,247.168C497.231,196.3 446.44,160.715 387.402,160.715C307.875,160.715 243.309,225.281 243.309,304.809C243.309,384.336 307.875,448.902 387.402,448.902C461.514,448.902 522.632,392.831 530.604,320.82Z" style="fill:rgb(64,64,64);"/>
            </g>
            <g transform="matrix(0.468446,0,0,0.468446,168.555,207.214)">
                <path d="M464.183,407.302C442.786,423.371 416.197,432.892 387.402,432.892C316.711,432.892 259.319,375.5 259.319,304.809C259.319,234.118 316.711,176.726 387.402,176.726C416.163,176.726 442.722,186.223 464.107,202.258C478.246,212.86 498.333,209.989 508.935,195.849C519.538,181.71 516.666,161.623 502.527,151.021C470.43,126.953 430.57,112.684 387.402,112.684C281.366,112.684 195.278,198.772 195.278,304.809C195.278,410.845 281.366,496.933 387.402,496.933C430.621,496.933 470.524,482.63 502.641,458.511C516.772,447.898 519.629,427.809 509.016,413.678C498.404,399.546 478.315,396.689 464.183,407.302Z" style="fill:rgb(167,167,167);"/>
            </g>
        </g>
    </g>
</svg>
